<svg width="183" height="183" viewBox="0 0 183 183" fill="none" xmlns="http://www.w3.org/2000/svg">
<rect width="183" height="183" fill="#1E1E1E"/>
<g clip-path="url(#clip0_0_1)">
<rect width="183" height="183" fill="white"/>
<path d="M150.093 97.7235C150.753 98.9908 151.274 100.329 152.386 101.349C156.139 104.835 160.169 108.038 164.478 110.784C168.37 113.248 169.69 116.522 168.405 120.993C167.188 125.147 165.798 129.266 164.478 133.385C162.498 139.44 162.359 145.459 164.409 151.585C165.555 154.999 165.799 158.59 165.243 162.146C164.93 164.258 163.922 166.159 162.636 167.849C159.613 171.862 154.818 172.39 150.857 169.046C146.236 165.138 142.414 160.562 139.634 155.105C137.41 150.74 135.082 146.41 132.823 142.08C132.754 142.115 132.65 142.115 132.58 142.15C132.58 142.397 132.545 142.643 132.58 142.889C133.379 148.452 133.24 154.049 133.379 159.682C133.414 161.618 132.893 163.378 131.989 165.032C130.391 167.954 128.063 168.342 125.631 166.089C125.387 165.877 125.214 165.596 124.901 165.244C124.692 165.56 124.519 165.772 124.38 165.983C122.99 168.236 121.565 170.489 120.21 172.777C119.585 173.798 118.681 174.361 117.639 174.854C117.117 173.904 116.701 173.024 116.77 171.897C117.013 167.426 116.388 163.061 115.345 158.696C114.789 156.372 114.789 153.838 114.824 151.409C114.859 149.613 115.901 148.205 117.569 147.536C119.932 146.551 120.731 144.72 120.766 142.326C120.766 140.284 120.731 138.278 120.766 136.236C120.801 133.173 121.704 130.427 123.511 127.928C126.986 123.14 128.897 117.684 129.522 111.84C130.113 106.313 130.287 100.716 130.599 95.1537C130.843 90.1196 130.912 85.0503 131.26 80.0162C131.399 77.8336 132.024 75.7214 132.545 73.574C132.858 72.3418 133.831 72.025 134.804 72.8699C135.951 73.8908 137.167 74.9469 138.001 76.2142C141.058 80.8611 145.124 84.3814 149.815 87.1977C152.525 88.817 155.305 90.3308 158.154 91.6685C162.046 93.4991 165.312 96.2098 168.544 98.9556C172.157 102.054 175.285 105.539 178.03 109.517C177.23 109.024 176.396 108.566 175.632 108.003C172.505 105.679 169.03 104.166 165.208 103.391C162.845 102.898 160.482 102.159 158.224 101.279C156.173 100.469 154.262 99.2373 152.282 98.2516C151.656 97.9347 150.961 97.7587 150.301 97.5123C150.197 97.5475 150.127 97.6179 150.093 97.7235Z" fill="#FF0000"/>
<path d="M127.576 92.6894C127.229 98.2515 126.986 103.814 126.465 109.376C126.221 111.77 125.492 114.163 124.797 116.487C124.032 118.986 122.538 121.063 120.523 122.683C117.812 124.865 116.562 127.787 116.075 131.202C115.971 131.941 115.693 132.751 115.311 133.385C114.894 134.053 114.372 134.018 113.955 133.349C113.608 132.786 113.33 132.117 113.295 131.448C113.156 128.034 112.079 125.041 109.89 122.366C108.709 120.923 108.987 119.198 109.195 117.473C109.577 114.445 110.029 111.418 110.238 108.39C110.481 105.081 109.126 102.969 106.068 101.701C104.226 100.927 102.385 100.293 100.543 99.554C99.9523 99.3428 99.3616 99.0964 98.8404 98.8148C97.8675 98.2515 97.5895 97.5474 98.1455 96.5265C98.7709 95.4 99.4659 94.3439 100.265 93.323C102.419 90.4716 104.678 87.6905 106.832 84.839C108.57 82.5156 108.743 80.0161 107.354 77.4111C106.798 76.355 106.242 75.2637 105.72 74.2076C104.991 72.7994 104.296 71.3561 103.566 69.948C101.933 66.8149 101.759 63.5761 102.941 60.2318C104.852 54.9161 108.048 50.5157 112.079 46.6785C113.4 45.4112 114.859 44.3199 116.214 43.0878C118.334 41.1516 120.627 41.3628 122.92 42.5597C123.928 43.0878 124.797 43.9326 125.631 44.7423C126.499 45.552 127.194 46.5025 128.063 47.3122C129.383 48.5443 130.183 48.6499 131.711 47.6994C133.414 46.6081 135.012 45.4112 136.68 44.2495C140.155 41.7852 143.56 39.145 147.139 36.8567C153.255 32.9844 159.857 32.8084 166.563 35.0262C169.76 36.0823 172.123 38.3353 173.999 41.1516C175.146 42.8061 176.327 44.4607 177.647 45.9744C178.655 47.1713 179.975 47.9458 181.435 48.4387C182.755 48.9315 183.276 49.9524 182.859 51.3254C181.852 54.6697 180.219 57.6972 177.821 60.2318C173.756 64.5266 168.683 66.674 162.949 67.3781C159.683 67.7654 156.521 67.2725 153.359 66.674C147.834 65.6531 142.379 66.2868 137.062 67.9414C132.302 69.4199 127.125 74.1724 127.368 81.5651C127.507 85.2262 127.403 88.9226 127.403 92.619C127.403 92.6894 127.507 92.6894 127.576 92.6894ZM140.885 47.981C140.815 47.8754 140.746 47.7698 140.676 47.6642C138.765 48.7203 136.784 49.6708 134.943 50.8325C133.101 51.9942 131.399 53.4024 129.627 54.7049C128.966 53.9304 128.41 53.1559 127.75 52.4871C125.978 50.6565 123.094 50.3045 121.496 51.783C119.133 54.0008 117.291 56.6059 116.492 59.8094C115.589 63.3649 116.388 66.3924 119.237 68.751C120.87 70.124 122.712 70.476 124.727 69.8071C125.109 69.6663 125.492 69.5607 125.943 69.3847C126.291 70.3704 126.604 71.3209 126.916 72.3066C127.924 70.7928 127.959 68.8919 126.951 67.2021C126.152 67.5893 125.283 67.9414 124.484 68.3638C122.955 69.2087 122.017 69.1031 120.905 67.7654C120.349 67.0965 119.793 66.322 119.48 65.4771C118.195 61.816 118.785 58.4012 120.974 55.2681C121.704 54.2472 122.642 53.4728 123.824 53.0151C125.387 52.4167 126.847 53.0503 127.298 54.5993C126.986 54.6345 126.708 54.6697 126.43 54.6697C125.7 54.7049 124.97 54.7049 124.241 54.7401C123.789 54.7753 123.511 54.9161 123.719 55.5146C125.109 55.409 126.36 55.761 127.403 56.7115C128.376 57.6268 129.21 58.6125 130.044 59.4925C131.086 58.1196 132.024 56.7467 133.136 55.5146C134.561 53.9656 136.124 52.5575 137.618 51.1141C138.661 50.0932 139.773 49.0371 140.885 47.981ZM121.183 65.1955C122.399 62.4144 123.546 59.8798 124.658 57.3099C122.92 57.0987 122.295 57.4155 121.565 58.8237C121.357 59.2461 121.148 59.6686 121.009 60.091C120.557 61.7456 120.557 63.3649 121.183 65.1955Z" fill="#FF0000"/>
<path d="M58.047 115.431C57.908 115.22 57.6648 115.044 57.6301 114.832C56.5181 109.27 55.2325 103.708 54.8155 98.0403C54.4333 92.795 54.0511 87.5145 53.6341 82.2692C53.5646 81.3539 53.3561 80.4034 53.0434 79.5585C51.8968 76.355 49.0475 74.7708 45.7812 75.6157C43.8354 76.1086 41.9938 76.9534 40.0479 77.4463C28.0948 80.5794 17.6011 77.8687 8.77532 69.1031C4.88362 65.2307 2.55554 60.3726 0.887673 55.1625C0.679189 54.4937 0.470707 53.7896 0.262223 53.1207C-0.397977 50.7621 0.157979 49.3188 2.27757 48.0866C4.95311 46.5025 7.6634 44.9183 10.3737 43.3694C11.7288 42.5949 13.0492 41.8204 14.4044 41.0812C17.9834 39.0746 21.8056 38.6169 25.8363 39.3914C29.728 40.1307 33.3417 41.7148 36.7817 43.651C40.3606 45.6928 43.8701 47.9106 47.3796 50.058C48.978 51.0437 49.9162 50.9029 51.0281 49.4596C52.5222 47.4882 54.0163 45.4816 55.441 43.4398C57.3173 40.7643 59.7149 39.9194 62.7379 41.0108C64.1973 41.5388 65.6219 42.1725 66.9423 42.9469C69.9306 44.7423 70.8688 47.5938 69.6179 50.8677C68.8534 52.8743 67.9848 54.8105 67.1856 56.7819C66.5254 58.4364 66.2127 60.1614 66.2474 61.9216C66.2821 63.4001 66.8381 64.1746 68.2628 64.4914C69.7569 64.8435 71.3205 64.9843 72.8146 65.3363C73.9613 65.5827 75.0732 65.8996 76.1504 66.3572C78.7564 67.4837 80.0421 69.7368 79.7294 72.553C78.7912 80.8258 76.0461 88.3594 70.5908 94.696C68.5407 97.0546 66.2127 99.1668 64.0583 101.455C61.4175 104.271 59.2632 107.369 58.5682 111.277C58.325 112.579 58.2903 113.952 58.186 115.29C58.1513 115.325 58.1165 115.396 58.047 115.431ZM54.4681 66.0404C54.9545 65.8292 55.302 65.8292 55.4062 65.6532C56.4139 64.1394 56.2749 61.1471 55.1978 59.7038C54.9893 59.4221 54.6765 59.1405 54.3638 59.1053C52.4527 58.8941 50.5764 58.8237 49.0822 60.443C48.144 61.4639 47.4838 61.5696 46.4067 60.7247C44.3218 59.1757 42.3065 57.5916 40.2216 56.0426C38.4148 54.6697 36.5732 53.2967 34.6968 51.9238C34.4536 52.2054 34.2451 52.4167 33.9671 52.7335C39.7004 56.9227 44.1133 62.2032 47.6228 68.3286C47.7966 67.7302 47.8661 67.2021 47.9703 66.674C48.4568 63.9986 49.6382 61.816 52.0705 60.4782C53.4604 59.739 54.3291 60.1966 54.4333 61.7808C54.5028 63.1185 54.4681 64.421 54.4681 66.0404ZM49.8467 70.828C50.2289 71.3913 50.5416 71.849 50.8891 72.3418C51.2713 72.8699 51.6188 73.3627 52.3832 73.1867C53.2171 73.0107 53.8774 72.5882 54.0163 71.7081C54.1553 70.828 54.1901 69.9128 54.2943 68.9975C54.2248 68.9975 54.1901 68.9623 54.1206 68.9623C53.4256 70.124 52.7307 71.2505 52.001 72.4826C51.445 71.7433 50.9586 71.0745 50.4374 70.4056C50.2289 70.5464 50.0551 70.652 49.8467 70.828ZM52.2095 63.0833C50.8891 64.597 50.8891 65.6179 52.2442 66.9909C53.5994 65.5123 53.5994 64.8787 52.2095 63.0833Z" fill="#FF0000"/>
<path d="M77.575 181.332C77.7835 179.783 77.7835 178.304 78.2352 177.002C79.4166 173.446 79.5556 169.855 78.8607 166.194C78.0615 161.899 77.3318 157.569 75.2469 153.697C73.8918 151.162 72.3282 148.768 70.7298 146.375C69.4789 144.474 68.7144 142.432 68.7492 140.144C68.7492 140.003 68.7492 139.862 68.7492 139.721C68.7492 139.686 68.7839 139.616 68.8882 139.44C69.2009 139.897 69.5831 140.284 69.7916 140.707C71.668 144.861 75.0732 146.867 79.3819 147.043C82.6829 147.184 86.0186 146.797 89.3543 146.656C92.0299 146.551 94.6707 145.952 97.381 146.375C99.2226 146.691 100.508 147.712 100.96 149.543C101.412 151.479 101.62 153.486 101.968 155.457C102.315 157.358 102.628 159.294 103.08 161.195C103.253 161.899 103.635 162.568 104.122 163.131C105.755 164.997 106.832 167.039 107.249 169.538C107.388 170.348 107.805 171.228 108.326 171.862C109.786 173.657 110.099 175.769 110.237 177.952C110.307 178.973 110.342 179.994 110.446 180.98C110.55 182.177 109.925 182.951 108.743 182.951C105.72 182.986 102.663 183.057 99.6396 182.916C95.1919 182.705 90.779 182.317 86.3313 182C83.4473 181.789 80.6328 181.578 77.575 181.332Z" fill="#FF0000"/>
<path d="M57.908 121.486C58.0123 124.337 58.8462 127.154 58.0818 130.04C57.7343 131.378 58.0818 132.716 58.7072 133.948C59.3674 135.145 61.4523 135.708 62.9464 135.039C64.9965 134.089 66.8034 132.68 68.367 131.026C69.1314 130.216 69.3052 129.125 69.2357 128.034C69.1662 127.118 69.0272 126.168 68.9924 125.253C68.9577 124.056 69.3399 123.528 70.4866 123.211C71.5985 122.929 72.7104 122.788 73.8223 122.577C75.4207 122.295 76.6716 121.556 77.6445 120.183C77.9573 119.726 78.687 119.338 79.2429 119.303C81.1888 119.162 83.1346 119.162 85.0805 119.162C86.6093 119.162 87.1653 119.761 87.1305 121.345C87.0611 123.105 87.6518 124.02 89.3196 124.548C90.7095 125.006 92.1342 125.358 93.5588 125.675C95.8521 126.203 96.6861 127.294 96.5818 129.688C96.5471 130.674 96.4776 131.695 96.6513 132.645C97.0683 134.863 98.8752 136.342 101.273 136.623C103.323 136.87 105.234 136.306 107.215 135.884C108.465 135.602 109.751 135.356 111.037 135.11C111.21 135.074 111.558 135.145 111.627 135.286C111.732 135.462 111.697 135.814 111.593 135.954C109.925 137.785 108.118 139.475 105.512 139.475C104.018 139.475 102.489 139.158 101.029 138.771C94.8445 137.187 88.6594 135.532 82.4744 133.877C81.5362 133.631 80.598 133.42 79.6251 133.138C76.0809 132.188 72.9536 133.138 70.0001 135.18C67.7763 136.729 65.3787 137.679 62.6337 137.574C60.8616 137.503 59.2284 137.081 57.6301 136.271C55.9274 135.426 55.024 134.018 55.3367 132.117C55.9622 128.562 56.7614 125.041 57.4911 121.486C57.6301 121.486 57.7691 121.486 57.908 121.486Z" fill="#FF0000"/>
<path d="M128.341 26.4718C129.661 25.9437 130.877 25.5213 132.059 24.9932C138.8 22.0361 143.247 16.8964 146.062 10.1374C146.583 8.90526 146.965 7.60273 147.417 6.33541C147.591 5.84256 147.521 5.56093 146.965 5.31451C146.271 6.1946 145.576 7.07468 144.915 7.95477C143.317 10.0318 141.788 12.144 140.155 14.221C136.472 18.903 131.607 21.5433 125.839 22.5642C124.727 22.7754 123.58 22.9162 122.469 22.9866C120.905 23.0922 120.002 22.4234 119.55 20.9096C119.863 20.8392 120.21 20.6632 120.523 20.6632C127.924 20.9448 133.727 17.7413 138.487 12.32C140.398 10.1374 141.962 7.60273 143.803 5.34972C145.298 3.51914 147.035 1.86458 148.668 0.174812C148.842 -0.00120547 149.294 -0.0364094 149.571 0.0339974C149.745 0.0692008 149.884 0.491642 149.919 0.738066C150.44 4.08239 149.641 7.2155 148.633 10.3486C146.166 18.2342 142.761 25.6269 137.618 32.1395C134.7 35.8359 131.538 39.321 127.229 41.4332C126.499 41.7853 125.665 41.9261 124.901 42.1725C124.797 42.1021 124.692 42.0317 124.588 41.9613C124.623 41.2924 124.484 40.5179 124.727 39.9547C125.665 37.6665 126.638 35.4134 127.715 33.2308C128.862 31.0482 129.418 28.8656 128.341 26.4718Z" fill="#FF0000"/>
<path d="M65.4482 22.2474C65.8304 23.5851 65.5872 24.6764 65.1355 25.7677C64.4406 27.3166 63.3981 28.408 61.7303 28.936C57.9428 30.1329 54.1206 30.5906 50.2289 29.3937C47.5186 28.5488 45.26 26.9294 43.2447 24.9932C41.4031 23.2331 39.5962 21.4377 37.8588 19.6071C37.0944 18.7974 36.5384 17.8469 35.8782 16.9316C35.8087 16.9668 35.7045 17.002 35.635 17.0373C36.052 18.3398 36.3995 19.7127 36.9554 20.98C39.1445 25.9085 42.8625 29.288 47.4491 31.8579C49.9162 33.2308 52.5222 34.1813 55.3368 34.9206C55.1978 35.5543 55.0935 36.1527 54.9198 36.7512C54.5376 38.1945 54.1901 39.6378 53.7384 41.0108C53.1129 42.8766 52.1747 43.299 50.2636 42.771C47.2406 41.9613 44.9473 40.0251 42.8625 37.7721C40.2564 34.991 38.4148 31.7171 36.9207 28.1967C35.6698 25.2748 34.3841 22.3882 33.0985 19.4663C31.6391 16.1572 31.3263 12.7072 31.9865 9.15168C32.056 8.83485 32.2645 8.34201 32.4383 8.3068C32.89 8.2716 33.4459 8.37721 33.7587 8.62363C34.1061 8.87006 34.2799 9.39811 34.4536 9.82055C35.5655 12.496 36.8512 15.0307 38.5885 17.3541C41.3336 21.0504 45.0515 23.4795 49.117 25.4509C51.2018 26.4718 53.3562 27.2814 55.719 27.2462C58.4988 27.1758 60.8616 26.0845 62.9464 24.2892C63.7109 23.6203 64.5448 22.9866 65.4482 22.2474Z" fill="#FF0000"/>
<path d="M65.6567 18.8679C65.7609 16.0164 67.3246 14.221 69.7221 13.869C72.4672 13.4465 75.1775 13.693 77.8877 14.0802C86.0186 15.2771 94.0453 14.573 101.898 12.1792C105.025 11.2287 108.257 10.7359 111.523 11.2287C115.102 11.792 116.944 14.2562 116.527 17.9526C116.423 19.0791 116.075 20.1704 115.867 21.2969C115.762 21.3321 115.658 21.3673 115.554 21.4025C114.72 20.5224 113.782 19.6775 113.087 18.727C110.898 15.77 108.222 15.1363 104.782 16.2276C100.89 17.4597 96.8945 18.4454 92.8986 19.2903C88.3467 20.276 83.899 19.5367 79.5556 18.0582C77.853 17.4597 76.1504 16.8261 74.413 16.2628C72.5714 15.6291 70.9383 15.9812 69.3052 17.0373C68.228 17.7413 66.9771 18.2342 65.6567 18.8679Z" fill="#FF0000"/>
<path d="M92.0994 117.156C91.1612 116.522 90.9875 115.748 91.057 114.868C91.196 112.791 92.1689 111.101 93.6631 109.798C95.9564 107.827 98.3192 105.961 100.752 104.166C102.558 102.863 104.122 103.708 104.365 105.996C104.643 108.601 103.497 110.573 101.62 112.157C100.196 113.354 98.4929 114.093 96.6513 114.128C95.2614 114.163 94.219 114.727 93.3156 115.748C92.9334 116.276 92.5164 116.698 92.0994 117.156Z" fill="#FF0000"/>
<path d="M67.2551 102.722C68.5407 102.511 69.8264 102.617 71.0078 103.074C72.6062 103.673 74.2045 104.307 75.6639 105.151C78.9649 107.088 82.2312 107.123 85.5669 105.433C87.8602 104.271 90.1536 103.074 92.4469 101.913C93.0376 101.631 93.6283 101.314 94.2537 101.173C94.8792 101.033 95.5741 100.962 96.1648 101.138C97.7632 101.525 97.9022 102.159 96.7903 103.356C92.2036 108.32 84.3855 110.115 78.1657 107.545C74.552 105.961 70.9383 104.342 67.2551 102.722Z" fill="#E41E1E"/>
<path d="M69.8611 118.634C70.0001 118.212 70.1043 117.965 70.1738 117.719C70.5561 116.663 70.4171 116.311 69.4441 115.853C68.9924 115.642 68.5407 115.501 68.089 115.325C65.483 114.304 64.649 113.107 64.649 110.291C64.649 108.883 64.8227 107.44 64.8922 106.031C64.8922 105.891 64.9965 105.75 65.1355 105.398C65.344 105.75 65.4829 105.961 65.5872 106.208C66.5949 108.707 68.1585 110.678 70.4171 112.122C72.0502 113.143 72.5714 114.304 72.1892 116.24C71.9459 117.437 71.2163 118.212 69.8611 118.634Z" fill="#FF0000"/>
</g>
<defs>
<clipPath id="clip0_0_1">
<rect width="183" height="183" fill="white"/>
</clipPath>
</defs>
</svg>
