<svg width="1940" height="3547" viewBox="0 0 1940 3547" fill="none" xmlns="http://www.w3.org/2000/svg">
<path d="M0 0L0 3547H1940V0H0Z" fill="#008000"/>
<path fill-rule="evenodd" clip-rule="evenodd" d="M139.308 3.30274H1676.86V3543.7H139.308L139.308 3.30274Z" fill="#808080"/>
<path d="M660.324 3011.92V2761.04" stroke="#FFFF00" stroke-width="2.01967" stroke-linecap="square"/>
<path d="M629.468 3540.72V3296.33" stroke="#FFFF00" stroke-width="2" stroke-linecap="square"/>
<path d="M660.426 3540.72V3296.33" stroke="#FFFF00" stroke-width="2" stroke-linecap="square"/>
<path d="M629.772 3011.91V2760.92" stroke="#FFFF00" stroke-width="2.00043" stroke-linecap="square"/>
<path d="M630.077 2470.28V2212.68" stroke="#FFFF00" stroke-width="2.00031" stroke-linecap="square"/>
<path d="M660.424 2470.28V2212.68" stroke="#FFFF00" stroke-width="2.00031" stroke-linecap="square"/>
<path d="M630.077 1928.72V1671.12" stroke="#FFFF00" stroke-width="2.00031" stroke-linecap="square"/>
<path d="M660.424 1928.72V1671.12" stroke="#FFFF00" stroke-width="2.00031" stroke-linecap="square"/>
<path d="M630.077 845.466V587.867" stroke="#FFFF00" stroke-width="2.00031" stroke-linecap="square"/>
<path d="M660.424 845.466V587.867" stroke="#FFFF00" stroke-width="2.00031" stroke-linecap="square"/>
<path d="M630.077 303.839V46.2397" stroke="#FFFF00" stroke-width="2.00031" stroke-linecap="square"/>
<path d="M660.424 303.839V46.2397" stroke="#FFFF00" stroke-width="2.00031" stroke-linecap="square"/>
<path d="M1186.6 3011.92V2761.04" stroke="#FFFF00" stroke-width="2.01967" stroke-linecap="square"/>
<path d="M1155.74 3540.72V3296.33" stroke="#FFFF00" stroke-width="2" stroke-linecap="square"/>
<path d="M1186.7 3540.72V3296.33" stroke="#FFFF00" stroke-width="2" stroke-linecap="square"/>
<path d="M1156.05 3011.91V2760.92" stroke="#FFFF00" stroke-width="2.00043" stroke-linecap="square"/>
<path d="M1156.35 2470.28V2212.68" stroke="#FFFF00" stroke-width="2.00031" stroke-linecap="square"/>
<path d="M1186.7 2470.28V2212.68" stroke="#FFFF00" stroke-width="2.00031" stroke-linecap="square"/>
<path d="M1156.35 1928.72V1671.12" stroke="#FFFF00" stroke-width="2.00031" stroke-linecap="square"/>
<path d="M1186.7 1928.72V1671.12" stroke="#FFFF00" stroke-width="2.00031" stroke-linecap="square"/>
<path d="M1156.35 845.466V587.867" stroke="#FFFF00" stroke-width="2.00031" stroke-linecap="square"/>
<path d="M1186.7 845.466V587.867" stroke="#FFFF00" stroke-width="2.00031" stroke-linecap="square"/>
<path d="M1156.35 303.839V46.2397" stroke="#FFFF00" stroke-width="2.00031" stroke-linecap="square"/>
<path d="M1186.7 303.839V46.2397" stroke="#FFFF00" stroke-width="2.00031" stroke-linecap="square"/>
<path d="M630.077 1387.09V1129.5" stroke="#FFFF00" stroke-width="2.00031" stroke-linecap="square"/>
<path d="M660.424 1387.09V1129.5" stroke="#FFFF00" stroke-width="2.00031" stroke-linecap="square"/>
<path d="M1156.35 1387.09V1129.5" stroke="#FFFF00" stroke-width="2.00031" stroke-linecap="square"/>
<path d="M1186.7 1387.09V1129.5" stroke="#FFFF00" stroke-width="2.00031" stroke-linecap="square"/>
<path d="M139.308 3543.7L139.308 3.30274" stroke="black" stroke-width="0.999996" stroke-linecap="square"/>
<path d="M1676.86 3543.7V3.30274" stroke="black" stroke-width="0.999996" stroke-linecap="square"/>
</svg>
