<svg width="128" height="128" viewBox="0 0 128 128" fill="none" xmlns="http://www.w3.org/2000/svg">
<g clip-path="url(#clip0_156_116)">
<path d="M17.9004 22.554C16.8606 23.3774 24.929 33.9638 25.4274 34.5807C32.329 43.1382 39.302 43.5499 40.1426 44.8234C40.9903 46.09 45.0744 50.348 52.4482 51.7073C52.4429 53.6308 52.5172 55.4496 52.6851 57.1782C48.1609 55.8474 43.061 54.6834 40.1975 54.6405C37.1787 54.5808 26.9057 57.2586 25.0596 58.0821C24.4109 58.3749 12.7365 57.8741 12.7143 59.1467C12.6918 60.4334 24.3137 61.1101 24.8058 60.468C29.0149 61.2134 41.0084 59.2374 42.277 59.4859C43.5454 59.7485 53.2876 62.7686 53.3581 62.784C54.0344 66.1763 55.0697 68.0402 56.2959 70.3176C51.4342 70.0913 42.6187 74.7535 37.6625 79.5397C33.5478 83.5132 26.696 89.9353 25.6527 91.3598C21.7553 96.6666 23.1658 113.502 25.2727 113.538C26.9271 113.567 23.2305 98.4533 27.1279 93.1465C28.2508 91.6173 40.6491 83.4674 42.1058 81.8521C43.5626 80.2368 51.1968 78.0221 54.4197 75.7021C51.1809 77.7177 48.9326 80.9175 48.8549 85.3716C48.5661 101.915 57.0822 108.733 63.564 108.924C63.564 108.924 63.5707 108.945 63.5849 108.946L63.6273 108.946L63.6697 108.947L63.7121 108.948C70.1897 108.976 78.8964 102.445 79.1847 85.9293C79.2642 81.7793 77.4026 78.628 74.5968 76.4998C78.0154 78.7731 84.7576 81.0619 86.074 82.6266C87.4807 84.2848 99.5304 92.8615 100.606 94.4362C104.323 99.8688 100.108 114.866 101.777 114.895C103.869 114.932 105.874 98.149 102.164 92.7095C101.164 91.2564 94.5472 84.6062 90.5738 80.4916C85.7806 75.5281 77.1474 70.5613 72.2736 70.6248C73.5785 68.3915 74.672 66.5153 75.4735 63.1417C75.5372 63.1357 85.3782 60.4999 86.6619 60.2889C87.9457 60.0779 99.8557 62.4782 104.095 61.8733C104.558 62.539 116.203 62.2614 116.218 60.9816C116.248 59.7021 104.528 59.7733 103.89 59.4581C102.081 58.5637 91.957 55.5369 88.9311 55.4841C86.0676 55.4412 80.8878 56.4257 76.3202 57.5836C76.548 55.8762 76.7282 54.0618 76.79 52.1392C84.2069 51.024 88.4441 46.9183 89.3214 45.6818C90.2129 44.4456 97.196 44.2776 104.392 35.952C104.905 35.3598 113.345 25.0545 112.327 24.2022C111.135 23.1984 103.4 32.8088 103.082 33.6589C101.013 34.6412 91.1577 40.9614 89.9759 41.4076C88.7872 41.8465 82.8114 43.8638 76.4319 47.5361C75.5278 43.8216 73.1325 41.2691 70.1722 39.8879C74.2941 39.9528 77.3058 39.1991 77.3851 34.6602C77.4717 29.6971 76.5971 25.1061 75.0563 21.4088C79.4866 19.2018 82.7108 16.8111 83.6713 16.4813C84.632 16.1374 85.0226 14.8288 83.2707 11.4743C80.3824 5.96424 77.234 1.17802 76.5295 1.42739C75.8248 1.69091 78.9055 12.3812 81.6652 14.7207C78.3392 15.2497 76.1428 16.2863 73.345 18.154C71.225 14.8214 68.4598 12.7929 65.3711 12.6895C65.3642 12.6823 65.3575 12.661 65.3503 12.6679C65.322 12.6674 65.2868 12.6597 65.2585 12.6592C62.1611 12.6476 59.2698 14.6056 57.0416 17.8694C54.3035 15.9122 52.1594 14.7715 48.861 14.1198C51.7004 11.8922 55.1734 1.32336 54.4781 1.04955C53.7827 0.775748 50.4486 5.41345 47.3698 10.8194C45.4947 14.1177 45.8671 15.4679 46.8155 15.831C47.7709 16.2012 50.9097 18.703 55.2603 21.0632C53.5844 24.6973 52.5499 29.2691 52.4632 34.2322C52.3842 38.757 55.3676 39.6295 59.4823 39.7013C56.4826 40.9856 53.9996 43.4528 52.9667 47.1194C46.7192 43.2268 40.7887 41.0299 39.6232 40.5428C38.4506 40.0626 28.8293 33.353 26.7968 32.2991C26.5147 31.4455 19.1337 21.5854 17.9004 22.554Z" fill="#222222"/>
<path opacity="0.4" d="M50.9005 88.5119C51.0227 81.1095 52.5469 76.4402 61.3913 76.6017C62.5367 76.6217 63.2564 77.9284 63.2256 79.6959C63.1659 83.5209 63.0195 91.9059 62.9526 95.7379C62.6886 111.271 50.645 101.937 50.9005 88.5119ZM53.9887 32.3281C54.5437 26.8711 55.4637 23.9946 57.4854 19.5957C59.3525 15.5406 60.6773 14.1917 63.1238 14.2202C65.3931 14.2669 64.3509 19.277 64.1904 28.0649C64.1347 32.0668 64.822 36.4493 61.0186 36.3688C57.2291 36.3027 53.6189 36.0911 53.9887 32.3281ZM53.7767 52.9822C53.5869 49.2731 54.2315 45.1612 56.6844 42.7925C58.1593 41.3543 59.5975 39.9932 61.5349 40.0129C64.8293 40.0846 63.7513 47.5481 63.675 51.5142C63.5898 55.5863 63.7327 66.0414 62.9654 69.0761C62.1912 72.1036 57.1906 69.7037 55.918 66.4425C54.6119 63.0746 53.6816 57.6198 53.7767 52.9822Z" fill="url(#paint0_linear_156_116)"/>
<path opacity="0.4" d="M76.9168 90.6635C77.039 83.2611 75.6714 78.5484 66.827 78.3869C62.5166 81.8265 64.6829 92.2321 64.6053 97.4924C64.3276 112.997 76.6613 104.089 76.9168 90.6635ZM75.7628 34.4198C75.4269 28.9472 74.5864 26.0471 72.7268 21.5733C70.974 17.455 69.7256 16.0471 67.2722 16.0113C64.7028 19.3823 62.939 36.5581 68.6033 38.2057C72.4001 38.2649 75.9941 38.1862 75.7628 34.4198ZM75.2541 55.0545C75.58 51.3756 75.0797 47.2155 72.7179 44.7698C71.2797 43.2949 69.8902 41.8703 67.9813 41.837C62.8013 47.2841 64.7407 63.4 65.5091 70.8321C66.1846 73.8637 71.2731 71.6328 72.6374 68.4247C74.06 65.1185 75.1942 59.6999 75.2541 55.0545Z" fill="url(#paint1_linear_156_116)"/>
</g>
<defs>
<linearGradient id="paint0_linear_156_116" x1="55.0713" y1="54.2811" x2="68.7156" y2="54.5011" gradientUnits="userSpaceOnUse">
<stop stop-color="white"/>
<stop offset="1" stop-color="white" stop-opacity="0"/>
</linearGradient>
<linearGradient id="paint1_linear_156_116" x1="75.5595" y1="55.632" x2="69.9659" y2="55.5277" gradientUnits="userSpaceOnUse">
<stop stop-color="white"/>
<stop offset="1" stop-color="white" stop-opacity="0"/>
</linearGradient>
<clipPath id="clip0_156_116">
<rect width="128" height="128" fill="white"/>
</clipPath>
</defs>
</svg>
