<svg width="34" height="34" viewBox="0 0 34 34" fill="none" xmlns="http://www.w3.org/2000/svg">
<path d="M0.5 12.8516C0.495452 13.1304 0.57573 13.4039 0.730189 13.6359C0.884648 13.868 1.10599 14.0476 1.36488 14.151L14.5662 19.4324L19.8476 32.6351C19.9496 32.8905 20.1259 33.1094 20.3536 33.2636C20.5813 33.4178 20.85 33.5001 21.125 33.5H21.147C21.4255 33.4956 21.6961 33.4068 21.9229 33.2452C22.1498 33.0836 22.3223 32.857 22.4175 32.5953L33.4175 2.34526C33.5075 2.09917 33.5254 1.83247 33.4689 1.57658C33.4125 1.32068 33.2841 1.08625 33.0989 0.90088C32.9137 0.715513 32.6793 0.586933 32.4235 0.530285C32.1676 0.473637 31.9009 0.491279 31.6547 0.581133L1.40475 11.5811C1.1429 11.6766 0.916208 11.8493 0.754654 12.0764C0.5931 12.3035 0.5043 12.5743 0.5 12.853V12.8516Z" fill="#3D3E48"/>
</svg>
